<?xml version="1.0" encoding="UTF-8"?>
<svg version="1.1" xmlns="http://www.w3.org/2000/svg" width="500" height="500">
<path d="M0 0 C165 0 330 0 500 0 C500 165 500 330 500 500 C335 500 170 500 0 500 C0 335 0 170 0 0 Z " fill="#161513" transform="translate(0,0)"/>
<path d="M0 0 C11.8847195 8.89575996 23.69458002 17.85732715 35.18505859 27.25952148 C41.15378773 32.14148449 47.20509533 36.91130947 53.28222656 41.65722656 C56.19271628 43.93233933 59.09594496 46.2166837 62 48.5 C63.16663279 49.41670978 64.33329944 50.33337648 65.5 51.25 C67.83333333 53.08333333 70.16666667 54.91666667 72.5 56.75 C73.07733887 57.20358887 73.65467773 57.65717773 74.24951172 58.12451172 C75.41794152 59.04263354 76.58623548 59.96092826 77.75439453 60.87939453 C80.64300506 63.15022369 83.53379548 65.41814946 86.4296875 67.6796875 C93.38807056 73.12009352 100.2679389 78.64654136 107.10888672 84.23388672 C112.21601524 88.39291886 117.41364395 92.41002606 122.65234375 96.40234375 C126.51981421 99.37705277 130.28772925 102.47162261 134.0625 105.5625 C139.62321325 110.11193507 145.25713942 114.50108712 151.03125 118.77734375 C154.86005673 121.64391089 158.61349689 124.59982719 162.36767578 127.56298828 C167.22770773 131.39790885 172.11030888 135.20298305 177 139 C185.24696496 145.40716384 193.46318241 151.8524475 201.66796875 158.31347656 C208.76135426 163.89807086 215.87092994 169.46100685 223 175 C230.11010613 180.52425895 237.20062363 186.0725406 244.27490234 191.64257812 C246.11583906 193.0911499 247.95814813 194.5379618 249.80078125 195.984375 C250.7448584 196.72554565 250.7448584 196.72554565 251.70800781 197.48168945 C252.90386737 198.42046125 254.09982365 199.35910986 255.29589844 200.29760742 C256.86526207 201.53004685 258.43268138 202.76496093 260 204 C260.95777344 204.64066406 261.91554688 205.28132812 262.90234375 205.94140625 C265 208 265 208 265.13110352 211.12866211 C265.08783936 212.07620361 265.0445752 213.02374512 265 214 C263.87843506 214.57331055 262.75687012 215.14662109 261.60131836 215.73730469 C236.51194951 228.5435953 236.51194951 228.5435953 211.5 241.5 C210.21138062 242.16974854 210.21138062 242.16974854 208.89672852 242.85302734 C203.9839355 245.4125399 199.10554349 248.02732055 194.2421875 250.6796875 C193.09814453 251.29521484 191.95410156 251.91074219 190.77539062 252.54492188 C188.56029055 253.73708085 186.35276595 254.94345884 184.15429688 256.16601562 C182.66639648 256.96168945 182.66639648 256.96168945 181.1484375 257.7734375 C180.27364746 258.25216309 179.39885742 258.73088867 178.49755859 259.22412109 C175.26980408 260.22683897 173.93992459 259.5338466 171 258 C170.34 257.67 169.68 257.34 169 257 C166.42019526 258.12744463 166.42019526 258.12744463 163.48046875 259.83984375 C162.32788574 260.48252197 161.17530273 261.1252002 159.98779297 261.78735352 C158.72098739 262.50399609 157.45422425 263.22071368 156.1875 263.9375 C154.87693575 264.67133317 153.56589306 265.40431247 152.25439453 266.13647461 C149.5240209 267.66158793 146.79576307 269.19039232 144.06884766 270.72167969 C138.45352295 273.87097997 132.81178072 276.97204609 127.17050171 280.07452393 C112.75615208 288.00602992 98.37780398 296.00250446 84 304 C70.17842558 311.68809895 56.35083695 319.36475617 42.5 327 C23.85283906 337.28073991 5.2213955 347.58755732 -13.30273438 358.08886719 C-21.77647339 362.88714384 -30.28811107 367.61587761 -38.80371094 372.33935547 C-58.25609609 383.13112806 -77.64405503 394.03631652 -97 405 C-102.87339355 401.33460489 -108.64391804 397.68852657 -114.0625 393.375 C-119.21978035 389.32403564 -124.48291054 385.44609747 -129.8125 381.625 C-136.26972902 376.99244749 -142.67008072 372.29628809 -148.99536133 367.48486328 C-150.23447383 366.54668542 -151.49230626 365.63295901 -152.76318359 364.73828125 C-155 363 -155 363 -157.44384766 360.43359375 C-166.43506331 351.69911225 -176.78908967 351.94768587 -188.63305664 352.04551697 C-192.29971229 352.09869501 -195.96398987 352.20196908 -199.62927246 352.31335449 C-203.39681116 352.41677391 -207.16503638 352.46155827 -210.93359375 352.51171875 C-218.29092008 352.61807109 -225.6448753 352.78807968 -233 353 C-231.34633343 347.88038928 -229.61977582 342.86334826 -227.4609375 337.9296875 C-226.97214111 336.80715576 -226.48334473 335.68462402 -225.97973633 334.52807617 C-225.45017334 333.32256104 -224.92061035 332.1170459 -224.375 330.875 C-223.80261718 329.56436673 -223.2306068 328.25357075 -222.65893555 326.94262695 C-221.42579245 324.11632431 -220.19045174 321.29099595 -218.95361328 318.46630859 C-216.96110624 313.91402782 -214.97794033 309.35771114 -212.99609375 304.80078125 C-207.20185637 291.48244617 -201.3996529 278.16773351 -195.546875 264.875 C-194.05197233 261.47921551 -192.55712632 258.08340613 -191.0625 254.6875 C-190.69325409 253.84858215 -190.32400818 253.00966431 -189.943573 252.14532471 C-183.25911205 236.94927673 -176.6952102 221.70304436 -170.18774414 206.43041992 C-166.43821416 197.6379681 -162.63017357 188.87658615 -158.73075867 180.14950562 C-155.94938239 173.91536981 -153.30126671 167.63262385 -150.71679688 161.31445312 C-149.06045925 157.32095198 -147.2486767 153.70147344 -145 150 C-144.31036619 148.24576039 -143.6647664 146.47362054 -143.0625 144.6875 C-141.91340829 141.42234505 -140.73954047 138.3115975 -139.125 135.25 C-137.17145599 131.52605672 -135.64796872 127.66397096 -134.125 123.75 C-132.25380241 118.95193552 -130.23856634 114.33388624 -127.875 109.75 C-125.51395562 105.16896065 -123.68484773 100.58961338 -121.99609375 95.7265625 C-119.76586014 89.62184462 -116.93075144 83.7634763 -113.9375 78 C-111.93404711 74.06521852 -110.51996234 69.9821714 -109.05078125 65.82421875 C-107.70792527 62.21498131 -106.10519815 58.76285633 -104.48046875 55.2734375 C-102.58928328 51.09187173 -100.82819564 46.86075573 -99.0625 42.625 C-95.87741952 34.99753078 -92.52451881 27.47750264 -89 20 C-80.61575905 19.34244069 -72.31001149 18.93299208 -63.8984375 19.0703125 C-45.54127669 19.28262831 -31.01142663 18.78651711 -15.16259766 8.39501953 C-11.93133642 6.31064081 -8.53627484 4.57934846 -5.125 2.8125 C-3.41469062 1.87860984 -1.70541222 0.94280336 0 0 Z " fill="#9E5E9D" transform="translate(235,65)"/>
<path d="M0 0 C0.49048828 0.36859131 0.98097656 0.73718262 1.48632812 1.11694336 C4.88991387 3.67247711 8.29664803 6.22320665 11.71875 8.75390625 C19.29852324 14.37504061 26.70902549 20.14968628 33.99804688 26.14282227 C38.57602898 29.88950981 43.24556457 33.48060346 48 37 C54.13668272 41.54258349 60.07919873 46.27586403 65.97583008 51.12475586 C72.03753304 56.08541752 78.28019516 60.78109509 84.57421875 65.44140625 C91.8259928 70.8259928 91.8259928 70.8259928 95 74 C95.598125 74.433125 96.19625 74.86625 96.8125 75.3125 C99.4443251 77.34276507 101.71569044 79.58878435 104 82 C104 82.33 104 82.66 104 83 C101.69 83 99.38 83 97 83 C97.01047363 83.59538574 97.02094727 84.19077148 97.03173828 84.80419922 C97.07323949 87.49442343 97.09930704 90.18458037 97.125 92.875 C97.14175781 93.81214844 97.15851563 94.74929688 97.17578125 95.71484375 C97.18222656 96.61074219 97.18867188 97.50664062 97.1953125 98.4296875 C97.20578613 99.25710449 97.21625977 100.08452148 97.22705078 100.93701172 C97 103 97 103 95 105 C92.4375 104.75 92.4375 104.75 90 104 C88.82573736 101.65147472 88.88491827 100.26225935 88.90234375 97.6484375 C88.90556641 96.79765625 88.90878906 95.946875 88.91210938 95.0703125 C88.92048828 94.18085938 88.92886719 93.29140625 88.9375 92.375 C88.94201172 91.4778125 88.94652344 90.580625 88.95117188 89.65625 C88.96297409 87.43743352 88.97943845 85.21874982 89 83 C86.36 83 83.72 83 81 83 C81.05204856 86.39706569 81.14716236 89.79162222 81.25 93.1875 C81.26417969 94.14720703 81.27835937 95.10691406 81.29296875 96.09570312 C81.44642854 100.53069106 81.5536656 103.27697456 83.921875 107.11328125 C87.01197083 109.91876299 88.78583316 110.15716493 92.875 110.1875 C93.73867188 110.20167969 94.60234375 110.21585937 95.4921875 110.23046875 C98.19111813 109.98243618 99.73785306 109.47382301 102 108 C104.12280563 104.81579155 104.28019537 103.79462745 104.4140625 100.11328125 C104.45273437 99.17548828 104.49140625 98.23769531 104.53125 97.27148438 C104.5621875 96.29501953 104.593125 95.31855469 104.625 94.3125 C104.66367187 93.32443359 104.70234375 92.33636719 104.7421875 91.31835938 C104.83645867 88.87909293 104.92206218 86.43983405 105 84 C110.75 85.625 110.75 85.625 113 89 C113.22705078 91.36010742 113.22705078 91.36010742 113.1953125 94.10546875 C113.18886719 95.08837891 113.18242187 96.07128906 113.17578125 97.08398438 C113.15902344 98.10814453 113.14226562 99.13230469 113.125 100.1875 C113.11597656 101.22326172 113.10695313 102.25902344 113.09765625 103.32617188 C113.0740786 105.88434685 113.0411703 108.44205748 113 111 C115.64 111 118.28 111 121 111 C121 106.05 121 101.1 121 96 C123.13490285 98.84653713 125.19459011 101.68238243 127.1875 104.625 C127.71730469 105.40101563 128.24710937 106.17703125 128.79296875 106.9765625 C130 109 130 109 130 111 C131.22976563 110.82210937 131.22976563 110.82210937 132.484375 110.640625 C133.56203125 110.51171875 134.6396875 110.3828125 135.75 110.25 C136.81734375 110.11078125 137.8846875 109.9715625 138.984375 109.828125 C142 110 142 110 144.26953125 111.890625 C144.84058594 112.58671875 145.41164063 113.2828125 146 114 C147.31787285 115.02028865 148.65210653 116.01971384 150 117 C153.56330438 119.79286019 156.97705696 122.71479072 160.3515625 125.73046875 C162.08858773 127.21192556 162.08858773 127.21192556 165 128 C166.68941658 129.64360189 168.35254373 131.31434185 170 133 C172.02718461 134.73232139 174.05937542 136.44056299 176.125 138.125 C179.20312132 140.6434629 182.21373129 143.15638801 185 146 C179.67578125 148.9375 179.67578125 148.9375 177.96522522 149.88124084 C174.76079137 151.6491847 171.55639264 153.41719215 168.35205078 155.18530273 C161.75751686 158.82399031 155.16258974 162.46195976 148.56640625 166.09765625 C132.35905016 175.03184757 116.17309519 184.00389345 100 193 C86.17842558 200.68809895 72.35083695 208.36475617 58.5 216 C39.85283906 226.28073991 21.2213955 236.58755732 2.69726562 247.08886719 C-5.77647339 251.88714384 -14.28811107 256.61587761 -22.80371094 261.33935547 C-42.25609609 272.13112806 -61.64405503 283.03631652 -81 294 C-86.87339355 290.33460489 -92.64391804 286.68852657 -98.0625 282.375 C-103.21978035 278.32403564 -108.48291054 274.44609747 -113.8125 270.625 C-119.6756371 266.41866158 -125.4898634 262.15880407 -131.25 257.8125 C-132.55703543 256.83299132 -133.86432368 255.85381991 -135.171875 254.875 C-137.09670436 253.43382562 -139.01631691 251.98747656 -140.92382812 250.5234375 C-142.77216738 249.10542954 -144.63438375 247.7076587 -146.5 246.3125 C-147.03915039 245.89009033 -147.57830078 245.46768066 -148.13378906 245.0324707 C-152.44256119 241.853988 -155.80104704 241.33341111 -161 241 C-159.02 240.01 -159.02 240.01 -157 239 C-164.90742936 232.86514225 -172.86717819 226.83476996 -181 221 C-178.27042901 218.06399416 -175.71023226 216.08623485 -172.16796875 214.22265625 C-171.21672119 213.71613525 -170.26547363 213.20961426 -169.28540039 212.68774414 C-168.26309326 212.15141357 -167.24078613 211.61508301 -166.1875 211.0625 C-164.00165761 209.89760775 -161.81678444 208.73089526 -159.6328125 207.5625 C-158.52325195 206.96953125 -157.41369141 206.3765625 -156.27050781 205.765625 C-151.32956636 203.09819528 -146.44315348 200.33832383 -141.5625 197.5625 C-134.62624972 193.62001486 -127.67930253 189.69927143 -120.70947266 185.81640625 C-108.31750416 178.90997478 -95.96756836 171.92348404 -83.81005859 164.60986328 C-81 163 -81 163 -77.88134766 161.52685547 C-69.5515227 157.38717704 -66.19944669 152.35794342 -62.7923584 143.94781494 C-61.98847622 141.97167167 -61.13597263 140.02382614 -60.26660156 138.07568359 C-58.51238124 134.12981104 -56.81443052 130.1614571 -55.125 126.1875 C-54.2568066 124.15119623 -53.38737566 122.11544808 -52.5151062 120.08088684 C-51.73914032 118.27023719 -50.96734489 116.45780192 -50.19580078 114.64526367 C-49 112 -49 112 -48 111 C-46.00041636 110.95919217 -43.99954746 110.95745644 -42 111 C-42 109.35 -42 107.7 -42 106 C-45.3 106 -48.6 106 -52 106 C-52 104.02 -52 102.04 -52 100 C-48.7 100 -45.4 100 -42 100 C-41.89204102 98.98574951 -41.78408203 97.97149902 -41.67285156 96.92651367 C-40.99114837 92.94834513 -39.86758841 89.85621471 -38.234375 86.17578125 C-37.95909973 85.54826462 -37.68382446 84.92074799 -37.40020752 84.2742157 C-36.52489001 82.28328987 -35.63791483 80.29783493 -34.75 78.3125 C-33.88209072 76.35085038 -33.01664425 74.38812811 -32.15148926 72.42526245 C-31.58357232 71.13808005 -31.0141639 69.85155464 -30.4432373 68.56570435 C-28.24671299 63.60803816 -26.16961369 58.60733384 -24.14941406 53.57495117 C-22.9566616 50.90291205 -21.52750057 48.49255548 -20 46 C-19.29309141 44.26586486 -18.63047572 42.51336179 -18 40.75 C-15.3863637 33.78829596 -12.43338838 26.99255954 -9.4375 20.1875 C-8.96634766 19.1140332 -8.49519531 18.04056641 -8.00976562 16.93457031 C-5.47959366 11.21054556 -2.85515001 5.56922202 0 0 Z " fill="#88478F" transform="translate(219,176)"/>
<path d="M0 0 C1.66145696 0.00503373 3.32291542 0.00959327 4.984375 0.01367188 C8.98962171 0.02450913 12.99479334 0.04166626 17 0.0625 C13.19941623 3.22881081 8.89145549 5.27406842 4.5 7.484375 C3.66847412 7.90744934 2.83694824 8.33052368 1.98022461 8.76641846 C-0.6780271 10.11873903 -3.33870443 11.46618052 -6 12.8125 C-22.44930288 20.66478974 -22.44930288 20.66478974 -38 30.0625 C-38 30.7225 -38 31.3825 -38 32.0625 C-35.70829311 34.10431332 -33.40091716 36.03088931 -31 37.9375 C-30.278125 38.51757812 -29.55625 39.09765625 -28.8125 39.6953125 C-23.29858186 44.09878879 -17.67437007 48.34177637 -12.00390625 52.54052734 C-7.23016612 56.09175264 -2.59550259 59.78417521 2 63.5625 C9.21279881 69.48767803 16.616878 75.11583556 24.11914062 80.66796875 C27.08906828 82.86997118 30.04417872 85.0916204 33 87.3125 C33.969375 88.03953125 34.93875 88.7665625 35.9375 89.515625 C36.618125 90.02609375 37.29875 90.5365625 38 91.0625 C35.28163744 100.10311489 31.34469911 108.58478066 27.5 117.1875 C26.48026325 119.47985274 25.46168395 121.77271716 24.4432373 124.06564331 C23.81316368 125.48303273 23.18212587 126.8999941 22.54992676 128.31643677 C19.76103226 134.56959164 17.05787867 140.82309702 14.6875 147.25 C13.07119784 151.48499944 11.32958197 155.5358302 9.25 159.5625 C6.31437895 165.27278116 3.7290092 171.10676217 1.1875 177 C0.79014648 177.91265625 0.39279297 178.8253125 -0.01660156 179.765625 C-0.38881836 180.63574219 -0.76103516 181.50585938 -1.14453125 182.40234375 C-1.64496948 183.56817993 -1.64496948 183.56817993 -2.15551758 184.75756836 C-3.04160233 187.17604945 -3.55935096 189.52813775 -4 192.0625 C-7.3 192.0625 -10.6 192.0625 -14 192.0625 C-14 194.0425 -14 196.0225 -14 198.0625 C-10.7 198.0625 -7.4 198.0625 -4 198.0625 C-4 199.7125 -4 201.3625 -4 203.0625 C-5.37079712 203.08775757 -5.37079712 203.08775757 -6.76928711 203.11352539 C-10.28124009 203.76232132 -10.28124009 203.76232132 -11.97875977 207.13842773 C-12.57347603 208.49746707 -13.14284192 209.86777865 -13.69140625 211.24609375 C-14.16029518 212.34039452 -14.16029518 212.34039452 -14.63865662 213.45680237 C-15.63559625 215.79581985 -16.59966995 218.14676338 -17.5625 220.5 C-18.21326847 222.04976487 -18.86624149 223.59860598 -19.52148438 225.14648438 C-19.83991302 225.89999176 -20.15834167 226.65349915 -20.48641968 227.42984009 C-21.7205069 230.342267 -22.96155069 233.25171571 -24.20343018 236.16082764 C-24.89446687 237.81055796 -25.54632872 239.47659316 -26.19091797 241.14501953 C-29.28322252 248.48177266 -34.13951203 251.35792794 -41 255.0625 C-42.74284209 256.07309069 -44.48504418 257.08478604 -46.2265625 258.09765625 C-48.024261 259.10993961 -49.82381037 260.11894163 -51.625 261.125 C-53.09936523 261.95354492 -53.09936523 261.95354492 -54.60351562 262.79882812 C-57.73379458 264.55676748 -60.86663019 266.3100766 -64 268.0625 C-66.08077914 269.22777535 -68.16150841 270.39313977 -70.2421875 271.55859375 C-73.38270622 273.31734314 -76.52347917 275.07563051 -79.66503906 276.83251953 C-87.50884919 281.22053773 -95.33472478 285.63947096 -103.15136719 290.07568359 C-108.52743883 293.12051366 -113.92186264 296.12894892 -119.3359375 299.10546875 C-120.581561 299.79171531 -121.82716657 300.47799444 -123.07275391 301.16430664 C-125.48079994 302.49084135 -127.89243152 303.8105347 -130.30615234 305.12670898 C-131.39621582 305.72684814 -132.4862793 306.3269873 -133.609375 306.9453125 C-135.0629541 307.74026123 -135.0629541 307.74026123 -136.54589844 308.55126953 C-138.72316608 309.89202627 -140.30871432 311.1645963 -142 313.0625 C-139.14605886 315.1253122 -136.29180549 317.18769198 -133.4375 319.25 C-132.63763672 319.82814453 -131.83777344 320.40628906 -131.01367188 321.00195312 C-130.22412109 321.57236328 -129.43457031 322.14277344 -128.62109375 322.73046875 C-127.45489502 323.57424072 -127.45489502 323.57424072 -126.26513672 324.43505859 C-124.79905145 325.48840246 -123.32704986 326.53358037 -121.84814453 327.56884766 C-120.21642605 328.71133837 -118.60561789 329.88361009 -117 331.0625 C-117 331.3925 -117 331.7225 -117 332.0625 C-121.52789598 332.92160788 -125.89914552 333.24918263 -130.50390625 333.37890625 C-131.21644562 333.39973267 -131.92898499 333.42055908 -132.66311646 333.4420166 C-134.96281093 333.50758389 -137.26261224 333.56663906 -139.5625 333.625 C-141.1410324 333.66786909 -142.7195643 333.71075653 -144.2980957 333.75366211 C-155.86669701 334.05708104 -167.42748567 334.18346705 -179 334.0625 C-176.62377479 326.44888046 -173.58102627 319.23580687 -170.375 311.9375 C-169.80261718 310.62686673 -169.2306068 309.31607075 -168.65893555 308.00512695 C-167.42579245 305.17882431 -166.19045174 302.35349595 -164.95361328 299.52880859 C-162.96110624 294.97652782 -160.97794033 290.42021114 -158.99609375 285.86328125 C-153.20185637 272.54494617 -147.3996529 259.23023351 -141.546875 245.9375 C-140.05197233 242.54171551 -138.55712632 239.14590613 -137.0625 235.75 C-136.69325409 234.91108215 -136.32400818 234.07216431 -135.943573 233.20782471 C-129.25911205 218.01177673 -122.6952102 202.76554436 -116.18774414 187.49291992 C-112.43821416 178.7004681 -108.63017357 169.93908615 -104.73075867 161.21200562 C-101.94938239 154.97786981 -99.30126671 148.69512385 -96.71679688 142.37695312 C-95.06045925 138.38345198 -93.2486767 134.76397344 -91 131.0625 C-90.31036619 129.30826039 -89.6647664 127.53612054 -89.0625 125.75 C-87.91340829 122.48484505 -86.73954047 119.3740975 -85.125 116.3125 C-83.17145599 112.58855672 -81.64796872 108.72647096 -80.125 104.8125 C-78.25380241 100.01443552 -76.23856634 95.39638624 -73.875 90.8125 C-71.51395562 86.23146065 -69.68484773 81.65211338 -67.99609375 76.7890625 C-65.76586014 70.68434462 -62.93075144 64.8259763 -59.9375 59.0625 C-57.93404711 55.12771852 -56.51996234 51.0446714 -55.05078125 46.88671875 C-53.70792527 43.27748131 -52.10519815 39.82535633 -50.48046875 36.3359375 C-48.58928328 32.15437173 -46.82819564 27.92325573 -45.0625 23.6875 C-41.87741952 16.06003078 -38.52451881 8.54000264 -35 1.0625 C-23.31178109 0.1687543 -11.71747985 -0.06285693 0 0 Z " fill="#9A5898" transform="translate(181,83.9375)"/>
<path d="M0 0 C0.49048828 0.36859131 0.98097656 0.73718262 1.48632812 1.11694336 C4.88991387 3.67247711 8.29664803 6.22320665 11.71875 8.75390625 C19.29852324 14.37504061 26.70902549 20.14968628 33.99804688 26.14282227 C38.57602898 29.88950981 43.24556457 33.48060346 48 37 C54.13350466 41.54023099 60.07792133 46.26555217 65.96484375 51.12036133 C71.53687183 55.6903898 77.27865613 60.00594339 83.125 64.21875 C84.78455746 65.43330515 86.39766757 66.71088947 88 68 C88 68.66 88 69.32 88 70 C84.19419344 72.11644154 80.37924251 74.21585394 76.5625 76.3125 C75.49322266 76.90740234 74.42394531 77.50230469 73.32226562 78.11523438 C67.97807637 81.04064684 62.96102668 83.6570125 57.01538086 85.09057617 C54.07078812 86.41929912 52.27249226 88.72330681 50 91 C47.94948062 92.31893039 45.84834785 93.5614794 43.7109375 94.734375 C43.12583405 95.05786926 42.54073059 95.38136353 41.93789673 95.71466064 C40.71144455 96.39075784 39.48275738 97.06281539 38.25195312 97.73095703 C36.36880019 98.75336602 34.49256159 99.78762163 32.6171875 100.82421875 C23.51055923 105.82981359 23.51055923 105.82981359 20 107 C12 87.38297872 12 87.38297872 12 84 C7.545 84.495 7.545 84.495 3 85 C2.52820313 86.45019531 2.52820313 86.45019531 2.046875 87.9296875 C-0.39968964 95.39223756 -2.94939707 102.75694835 -6 110 C-3.69 110 -1.38 110 1 110 C1.495 108.02 1.495 108.02 2 106 C3.64574566 105.97311849 5.29161413 105.95365877 6.9375 105.9375 C7.85402344 105.92589844 8.77054687 105.91429687 9.71484375 105.90234375 C12 106 12 106 13 107 C13.04063832 108.66617115 13.042721 110.33388095 13 112 C12.09012329 112.48859497 12.09012329 112.48859497 11.16186523 112.98706055 C-0.9486061 119.49829868 -13.00319853 126.0911655 -24.95654297 132.88671875 C-33.16721916 137.5472496 -41.42079772 142.12737211 -49.6875 146.6875 C-50.32545502 147.03978668 -50.96341003 147.39207336 -51.62069702 147.7550354 C-53.43798556 148.75826854 -55.25595236 149.76025917 -57.07421875 150.76171875 C-58.12182373 151.33881592 -59.16942871 151.91591309 -60.2487793 152.51049805 C-62.48076444 153.71888755 -64.72067132 154.88440947 -67 156 C-66.31565696 150.96881134 -64.24944954 146.61895648 -62.21875 142.015625 C-61.84520386 141.15942566 -61.47165771 140.30322632 -61.08679199 139.42108154 C-60.29897611 137.61807337 -59.50876303 135.81611098 -58.71630859 134.01513672 C-57.49921411 131.24821337 -56.2900365 128.47793317 -55.08203125 125.70703125 C-54.3155656 123.95552717 -53.54865408 122.20421812 -52.78125 120.453125 C-52.41769409 119.62089417 -52.05413818 118.78866333 -51.67956543 117.93121338 C-49.11617556 112.11617556 -49.11617556 112.11617556 -48 111 C-46.00041636 110.95919217 -43.99954746 110.95745644 -42 111 C-42 109.35 -42 107.7 -42 106 C-45.3 106 -48.6 106 -52 106 C-52 104.02 -52 102.04 -52 100 C-48.7 100 -45.4 100 -42 100 C-41.89204102 98.98574951 -41.78408203 97.97149902 -41.67285156 96.92651367 C-40.99114837 92.94834513 -39.86758841 89.85621471 -38.234375 86.17578125 C-37.95909973 85.54826462 -37.68382446 84.92074799 -37.40020752 84.2742157 C-36.52489001 82.28328987 -35.63791483 80.29783493 -34.75 78.3125 C-33.88209072 76.35085038 -33.01664425 74.38812811 -32.15148926 72.42526245 C-31.58357232 71.13808005 -31.0141639 69.85155464 -30.4432373 68.56570435 C-28.24671299 63.60803816 -26.16961369 58.60733384 -24.14941406 53.57495117 C-22.9566616 50.90291205 -21.52750057 48.49255548 -20 46 C-19.29309141 44.26586486 -18.63047572 42.51336179 -18 40.75 C-15.3863637 33.78829596 -12.43338838 26.99255954 -9.4375 20.1875 C-8.96634766 19.1140332 -8.49519531 18.04056641 -8.00976562 16.93457031 C-5.47959366 11.21054556 -2.85515001 5.56922202 0 0 Z " fill="#171514" transform="translate(219,176)"/>
<path d="M0 0 C2.51625 -0.0825 5.0325 -0.165 7.625 -0.25 C8.79603271 -0.30462402 8.79603271 -0.30462402 9.99072266 -0.36035156 C15.11566727 -0.44101837 17.95760011 0.60960009 22 4 C24.76055304 6.90645964 25.43128699 8.88624618 25.4375 12.875 C25.27581067 17.64835017 24.32149654 20.41628004 21 24 C16.3491296 26.88627546 12.4722425 27.38797724 7.125 27.1875 C4.77375 27.125625 2.4225 27.06375 0 27 C0 18.09 0 9.18 0 0 Z " fill="#F9EEEF" transform="translate(102,260)"/>
<path d="M0 0 C8 0 8 0 10.49609375 2.3359375 C11.13675781 3.33882813 11.77742188 4.34171875 12.4375 5.375 C13.09621094 6.37273437 13.75492187 7.37046875 14.43359375 8.3984375 C16 11 16 11 17 13 C17.33 8.71 17.66 4.42 18 0 C20.64 0 23.28 0 26 0 C26 8.91 26 17.82 26 27 C23.03 27 20.06 27 17 27 C14.85134412 24.67574817 13.78349237 23.22598875 12.4375 20.5 C12.09654297 19.87996094 11.75558594 19.25992187 11.40429688 18.62109375 C10.57200624 17.09718133 9.78164024 15.55050163 9 14 C8.67 18.29 8.34 22.58 8 27 C5.36 27 2.72 27 0 27 C0 18.09 0 9.18 0 0 Z " fill="#F4E7EA" transform="translate(332,260)"/>
<path d="M0 0 C8 0 8 0 9.734375 1.28515625 C10.06953125 1.87167969 10.4046875 2.45820313 10.75 3.0625 C11.32041016 4.00996094 11.32041016 4.00996094 11.90234375 4.9765625 C12.26457031 5.64429688 12.62679688 6.31203125 13 7 C13.39316406 7.66773438 13.78632813 8.33546875 14.19140625 9.0234375 C15.15409818 10.66705787 16.08073438 12.33170314 17 14 C17.33 9.38 17.66 4.76 18 0 C20.31 0 22.62 0 25 0 C25 8.91 25 17.82 25 27 C18 27 18 27 15.63671875 24.734375 C14.99347656 23.74953125 14.35023438 22.7646875 13.6875 21.75 C13.03136719 20.77546875 12.37523437 19.8009375 11.69921875 18.796875 C10 16 10 16 8 12 C7.67 16.95 7.34 21.9 7 27 C4.69 27 2.38 27 0 27 C0 18.09 0 9.18 0 0 Z " fill="#F9EFF0" transform="translate(366,260)"/>
<path d="M0 0 C2.97 0 5.94 0 9 0 C11.4683487 6.36307924 13.92448558 12.73128399 16.3125 19.125 C16.80169922 20.42824219 16.80169922 20.42824219 17.30078125 21.7578125 C18 24 18 24 18 27 C15.69 27 13.38 27 11 27 C10.77570313 26.35546875 10.55140625 25.7109375 10.3203125 25.046875 C9.17110544 22.75611148 9.17110544 22.75611148 6.6171875 22.390625 C5.25980469 22.32101562 5.25980469 22.32101562 3.875 22.25 C2.96492187 22.19328125 2.05484375 22.1365625 1.1171875 22.078125 C0.06917969 22.03945313 0.06917969 22.03945313 -1 22 C-1.33 23.65 -1.66 25.3 -2 27 C-4.64 27 -7.28 27 -10 27 C-7.29750202 17.64667364 -4.01747004 8.86614078 0 0 Z " fill="#F0E9E7" transform="translate(222,260)"/>
<path d="M0 0 C15.94117647 0 15.94117647 0 21 4 C22.56935594 7.13871188 22.35201103 9.53855822 22 13 C19.9075945 16.10485978 18.37224664 17.69021188 14.6640625 18.52734375 C12.45174486 18.78207433 10.2247054 18.90038633 8 19 C8 21.97 8 24.94 8 28 C5.36 28 2.72 28 0 28 C0 18.76 0 9.52 0 0 Z " fill="#E5DEDC" transform="translate(185,259)"/>
<path d="M0 0 C2.64 0 5.28 0 8 0 C8.02505615 0.56509277 8.0501123 1.13018555 8.07592773 1.71240234 C8.19179956 4.26683742 8.31456537 6.8208955 8.4375 9.375 C8.47681641 10.26445312 8.51613281 11.15390625 8.55664062 12.0703125 C8.61948242 13.34648437 8.61948242 13.34648437 8.68359375 14.6484375 C8.72025146 15.43395996 8.75690918 16.21948242 8.79467773 17.02880859 C8.890891 19.07523496 8.890891 19.07523496 10 21 C13.29075996 20.62095792 13.29075996 20.62095792 16 19 C16.15582303 17.65984779 16.25044142 16.31241097 16.31640625 14.96484375 C16.35830078 14.15595703 16.40019531 13.34707031 16.44335938 12.51367188 C16.48267578 11.66353516 16.52199219 10.81339844 16.5625 9.9375 C16.60568359 9.08349609 16.64886719 8.22949219 16.69335938 7.34960938 C16.79976702 5.23327963 16.90041731 3.11666187 17 1 C19.31 1 21.62 1 24 1 C24.14575327 4.39537852 24.23421542 7.78994902 24.3125 11.1875 C24.35439453 12.14720703 24.39628906 13.10691406 24.43945312 14.09570312 C24.56352954 21.26731967 24.56352954 21.26731967 21.60546875 25.11328125 C16.87193604 28.54101183 12.75638106 28.81100621 7 28 C3.87421857 26.3279253 1.60718825 24.2143765 0 21 C-0.08400529 19.40552536 -0.10727467 17.80759455 -0.09765625 16.2109375 C-0.09443359 15.26992188 -0.09121094 14.32890625 -0.08789062 13.359375 C-0.07951172 12.37453125 -0.07113281 11.3896875 -0.0625 10.375 C-0.05798828 9.38242187 -0.05347656 8.38984375 -0.04882812 7.3671875 C-0.03702145 4.9113984 -0.020554 2.45572896 0 0 Z " fill="#F7E8EB" transform="translate(300,259)"/>
<path d="M0 0 C3.4375 1.6875 3.4375 1.6875 6 4 C6.875 6.75 6.875 6.75 7 9 C4.03 9 1.06 9 -2 9 C-2 8.01 -2 7.02 -2 6 C-3.32 6.33 -4.64 6.66 -6 7 C-5.67 7.99 -5.34 8.98 -5 10 C-2.73955829 11.13678329 -2.73955829 11.13678329 -0.0625 12 C4.78193146 13.6728972 4.78193146 13.6728972 7 17 C7.59111649 20.88447979 7.29788155 22.52749823 5.1875 25.875 C0.56354457 28.95763695 -3.59515077 29.02910922 -9 28 C-12.1875 25.6875 -12.1875 25.6875 -14 23 C-14 22.01 -14 21.02 -14 20 C-11.36 20 -8.72 20 -6 20 C-5.67 20.66 -5.34 21.32 -5 22 C-4.01 22 -3.02 22 -2 22 C-2 21.01 -2 20.02 -2 19 C-2.61488281 18.74605469 -3.22976563 18.49210937 -3.86328125 18.23046875 C-4.67152344 17.88628906 -5.47976563 17.54210937 -6.3125 17.1875 C-7.11300781 16.85105469 -7.91351563 16.51460938 -8.73828125 16.16796875 C-11.03133052 14.98382068 -12.42702231 14.03794594 -14 12 C-14.7202381 6.95833333 -14.7202381 6.95833333 -14 4 C-9.88205658 -0.11794342 -5.58671536 -1.09957221 0 0 Z " fill="#F6E9EB" transform="translate(286,259)"/>
<path d="M0 0 C5.61 0 11.22 0 17 0 C17 1.65 17 3.3 17 5 C13.7 5 10.4 5 7 5 C7 6.65 7 8.3 7 10 C9.97 10 12.94 10 16 10 C16 11.98 16 13.96 16 16 C13.03 16 10.06 16 7 16 C7 17.65 7 19.3 7 21 C10.3 21 13.6 21 17 21 C17 22.98 17 24.96 17 27 C11.39 27 5.78 27 0 27 C0 18.09 0 9.18 0 0 Z " fill="#F8EDEE" transform="translate(135,260)"/>
<path d="M0 0 C5.61 0 11.22 0 17 0 C17 1.65 17 3.3 17 5 C13.7 5 10.4 5 7 5 C7 6.65 7 8.3 7 10 C9.97 10 12.94 10 16 10 C16 11.98 16 13.96 16 16 C13.03 16 10.06 16 7 16 C7 17.98 7 19.96 7 22 C10.3 22 13.6 22 17 22 C17 23.65 17 25.3 17 27 C11.39 27 5.78 27 0 27 C0 18.09 0 9.18 0 0 Z " fill="#F9F0F0" transform="translate(160,260)"/>
<path d="M0 0 C2.64 0 5.28 0 8 0 C9.32 2.64 10.64 5.28 12 8 C14.01136276 5.44008376 15.62845496 2.95409701 17 0 C19.64 0 22.28 0 25 0 C23.58680191 3.74804711 21.84842503 7.17083453 19.9375 10.6875 C17.14106083 16.17831851 16.02715199 20.86365071 16 27 C13.69 27 11.38 27 9 27 C9.020625 26.45214844 9.04125 25.90429688 9.0625 25.33984375 C8.85656906 17.42437333 5.56126128 11.81536683 1.71484375 5.125 C0 2 0 2 0 0 Z " fill="#F8EEEF" transform="translate(398,260)"/>
<path d="M0 0 C7 0 7 0 9.4375 1.625 C11.49791771 4.75683492 11.6767545 6.31544773 11 10 C8.875 12.875 8.875 12.875 6 15 C4.02 15 2.04 15 0 15 C0 10.05 0 5.1 0 0 Z " fill="#A14D8F" transform="translate(109,266)"/>
<path d="M0 0 C2.64 0 5.28 0 8 0 C7.67 1.65 7.34 3.3 7 5 C8.32 5 9.64 5 11 5 C11 6.98 11 8.96 11 11 C10.67 11 10.34 11 10 11 C10 9.35 10 7.7 10 6 C6.7 6 3.4 6 0 6 C0 4.02 0 2.04 0 0 Z " fill="#976193" transform="translate(167,276)"/>
<path d="M0 0 C1.98 0 3.96 0 6 0 C6 1.65 6 3.3 6 5 C4.02 5.33 2.04 5.66 0 6 C0 4.02 0 2.04 0 0 Z " fill="#1A1816" transform="translate(193,266)"/>
<path d="M0 0 C2.12508244 3.18762365 2.5020163 5.26512223 3 9 C1.35 9 -0.3 9 -2 9 C-1.125 1.125 -1.125 1.125 0 0 Z " fill="#33312F" transform="translate(226,268)"/>
</svg>
